# xmcd
#
# Track frame offsets:
#	150
#	8535
#	16017
#	26250
#	34152
#	44350
#	50477
#	58300
#	69795
#	81712
#	92010
#	98645
#	109560
#	117867
#	129822
#	140017
#	149095
#	161547
#	169327
#	180785
#	190187
#	201210
#	210325
#
# Disc length: 2966 seconds
#
# Revision: 1
# Processed by: cddbd v1.5.2PL0 Copyright (c) Steve Scherf et al.
# Submitted via: EasyCDDAExtractor 10.0.5.1
#
DISCID=2e0b9417
DTITLE=Jim Reeves - According To My Heart
DYEAR=1977
DGENRE=Country
TTITLE0=Yonder Comes A Sucker (Live)
TTITLE1=Blue Boy (Live)
TTITLE2=Just Call Me Lonesome (Live)
TTITLE3=In A Mansion Stands My Love (Live)
TTITLE4=He'll Have To Go (Live)
TTITLE5=Have I Told You Lately That I Love You (Live)
TTITLE6=I Know One (Live)
TTITLE7=Am I Loosing You (Live)
TTITLE8=Your Old Love Letters (Live)
TTITLE9=Anna Marie (Live)
TTITLE10=I'm Beginning To Forget You (Live)
TTITLE11=I Love You More (Live)
TTITLE12=Waiting For A Train (Live)
TTITLE13=Mexican Joe (Live)
TTITLE14=I Missed Me (Live)
TTITLE15=According To My Heart (Live)
TTITLE16=Four Walls (Live)
TTITLE17=Bimbo (Live)
TTITLE18=When God Dips Love In My Heart (Live)
TTITLE19=Billy Bayou (Live)
TTITLE20=If Heartaches Are The Fashion (Live)
TTITLE21=I'd Like To Be (Live)
TTITLE22=Peace In The Valley (Live)
EXTD=
EXTT0=
EXTT1=
EXTT2=
EXTT3=
EXTT4=
EXTT5=
EXTT6=
EXTT7=
EXTT8=
EXTT9=
EXTT10=
EXTT11=
EXTT12=
EXTT13=
EXTT14=
EXTT15=
EXTT16=
EXTT17=
EXTT18=
EXTT19=
EXTT20=
EXTT21=
EXTT22=
PLAYORDER=
